<svg id="Layer_1" data-name="Layer 1" xmlns="http://www.w3.org/2000/svg" xmlns:xlink="http://www.w3.org/1999/xlink" viewBox="0 0 117 25"><defs><style>.cls-1{fill:#26a9e0;}.cls-2{fill:#1b75bb;}.cls-3{clip-path:url(#clip-path);}.cls-4{fill:#e6e7e8;}.cls-5{fill:#be1e2d;}.cls-6{clip-path:url(#clip-path-2);}.cls-7{clip-path:url(#clip-path-3);}.cls-8{clip-path:url(#clip-path-4);}.cls-9{clip-path:url(#clip-path-5);}</style><clipPath id="clip-path"><path class="cls-1" d="M33.23,7.39H27.8A7.78,7.78,0,0,0,14.66,9.72c-1.52-.32-3-.67-4.53-1.07a12.39,12.39,0,0,1,23.1-1.26Z"/></clipPath><clipPath id="clip-path-2"><path class="cls-1" d="M99,2V.14h1V5H99V3.14H94.22V2Z"/></clipPath><clipPath id="clip-path-3"><path class="cls-1" d="M94.22,11.1V6.65H100V11.1H99V7.76H97.63V11h-1V7.76H95.3V11.1Z"/></clipPath><clipPath id="clip-path-4"><path class="cls-1" d="M95,17.91a3.17,3.17,0,0,1-.87-2.25,2.89,2.89,0,0,1,3-3.15,3,3,0,0,1,3.07,3.15,3.11,3.11,0,0,1-.89,2.18l-.71-.75a2,2,0,0,0,.55-1.43,1.92,1.92,0,0,0-2-2.05,1.89,1.89,0,0,0-2,2.05,2.21,2.21,0,0,0,.59,1.49Z"/></clipPath><clipPath id="clip-path-5"><path class="cls-1" d="M94.22,23.61h2.35V20.7H94.22V19.58H100V20.7H97.58v2.91H100v1.12H94.22Z"/></clipPath></defs><path class="cls-2" d="M13.55,11.91l-4-.63a1,1,0,0,1,0-.17Z"/><path class="cls-2" d="M13.61,13,9.55,13a1.93,1.93,0,0,1,0-.24l.71,0,.78,0h.1l.92,0h.31L13,13Z"/><path class="cls-1" d="M24.33,24.65a13.67,13.67,0,0,1-2.41.21,12.4,12.4,0,0,1-12-9.45l4.87,0A7.78,7.78,0,0,0,23.93,20l.39,4.62Z"/><path class="cls-1" d="M33.23,7.39H27.8A7.78,7.78,0,0,0,14.66,9.72c-1.52-.32-3-.67-4.53-1.07a12.39,12.39,0,0,1,23.1-1.26Z"/><g class="cls-3"><path class="cls-4" d="M13.69,1.46l.2.05.07.08.16.08v.07l.26.08v-.1l-.23-.07.07,0V1.55L14,1.49l.28-.1.22.06.06.17.17,0,.13-.07.07.06-.18.1-.19-.05a.59.59,0,0,1,0,.14l.24.06,0,0,.17,0,0-.09-.09,0L15,1.68h.08l.25.08-.18.09V2l.14.06,0-.18.16,0,.26,0,.25.21.07.06,0,.13.11.07L16,2.4l-.13,0h0l-.09.11-.35-.19.34-.07-.08-.13-.27,0,0,0h0l-.1.06-.12,0v.07l0,0v0l-.1,0,0,.06-.1,0,0-.12H14.8l-.4.11v.15l.08.09.19.08-.06.22h.09l.13-.15h.22l.07-.26.14,0,.26.14-.07.17.08,0,.23,0-.06.23.06.06.06.07,0,.13h-.15v0l.05,0,.1.08,0,.09h-.05l0,0-.14-.09V3.13h0l.07,0,0-.06-.06,0,0,.05h-.18V3l0,0-.09,0,0,0,0,.07.07,0,.07,0h0l-.08,0,0,0-.06,0-.22.11,0,0-.29.07-.31.18,0,.11L14,3.64l-.15.09L13.75,4l-.14-.12,0-.14-.46-.13-.27,0-.16.16-.08.14,0,.17.18.07.35-.11v.1l-.14.15.21.1-.07.35.29.14.26-.17.23.11.05.14.23,0,0-.06.11.09.08.26.25.07,0,.19,0,.19.16.12L15,6l.34.1.06.19.13.09-.06.13-.23.16-.18.45-.18.08-.22-.07-.11.11h0v.26l-.07,0-.26.19-.11.12-.26,0h-.16l0,.06.1.06,0,.06-.12.07,0,.09.11,0,0,.09-.05.08,0,.06.12.19,0,.07-.23-.07-.17-.26L13.23,8l.11-.3-.09-.22.14-.29-.07,0,.18-.66a2,2,0,0,0-.19-.24L13.2,6.2V6.07L13,5.62l.07-.13.07-.21.24-.08,0-.25-.29-.11L13,4.52l-.15-.09-.1,0,0-.1-.13,0v0l-.32-.18-.08-.24.09-.09L12.2,3.4l0-.24-.09,0,0,.23.08.27,0,.08L12,3.67,12,3.36l.08-.3-.13-.12L12,2.72a4,4,0,0,0-.73,1.42"/><path class="cls-4" d="M28.19,2.69l-.27-.16-.29,0-.32-.2-.19,0L27,2.32,26.8,2l-.67,0-.31-.24L25.64,2l-.15,0-.11.17,0,.13-.19.3,0,0-.1.17-.67.1-.33-.21V2.59L24,2.49,24,2.58l-.15-.05,0-.64-.23-.14,0-.29.06-.08.11-.18,0-.18L24,.55l.23.15.31-.3.09,0,0-.07L24.56.22,24.67,0l.26-.1.2-.32v0a2.74,2.74,0,0,0-.39-.09l-.12.21-.18,0-.2-.1v.14l.18.2L24.16,0,24-.09,23.79,0,23.7,0l-.11.17.19,0L24,.08h.06v0L24.2.2l0,.13L24.1.4H24l.1-.14,0-.07-.4.18-.1,0,0,.19-.11.11.13.36.08.1-.07.13-.12.18-.12.08-.23-.11-.08-.1.07-.21L23.31.9,23.22.8l-.08.08L23,.74l.09-.23L23,.24,23,.08l.1-.12,0,0L23-.19l0,.21-.18,0-.07.09-.11,0,0-.13,0-.23,0-.1,2-4.7,7.6,4.8Z"/></g><path class="cls-1" d="M33.57,16.71a11.39,11.39,0,0,1-4.24,5.89l-.5-4.8a1,1,0,0,1,.25-.77,1,1,0,0,1,.74-.32Z"/><path class="cls-5" d="M5.63,7.77l.15,0L6.43,8l1,.29.35.11.72.21L9,8.76,10,9.05l.66.17.45.11.7.18.68.16.33.07.72.17.66.14.31.07c.78.16,1.55.32,2.33.46l.46.08.8.14.65.11,1,.16.86.13.84.11h.12l.76.1h.12l.85.1.73.08.25,0,.82.08.75.07.89.06.47,0,.6,0,.7,0h0L29,12l.56,0,.83,0H34.3a11.45,11.45,0,0,1-.61,4.24l-3.87,0a1.27,1.27,0,0,0-.34,0h-.05l-.07,0h-.05a2,2,0,0,0-.32.18h0l-.08.07a.57.57,0,0,0-.11.11l-.05.05a2.13,2.13,0,0,0-.16.25l-.06.13,0,.07s0,.05,0,.07a1.35,1.35,0,0,0-.05.45.22.22,0,0,0,0,.08l.52,5V23c-.22.16-.45.3-.68.44l-.23.13h0l-.23.12-.19.1-.16.07-.19.09-.07,0L27,24h0l-.24.08-.07,0-.18.06-.09,0-.16.05-.13,0-.1,0-.22.06-.27.05-.27,0-.28,0h0l-.22,0-.4-4.7-.17-2.07a2.15,2.15,0,0,0-1.57-1.89l-.14,0a22.68,22.68,0,0,0-4.24-.74h0c-.57,0-1.5-.08-2.07-.09H14.59l-4.8,0L6.9,15H6.67a2.94,2.94,0,0,1-1.17-.23A2.94,2.94,0,0,1,4,13.09L9.55,13l4.06,0L13,13l-.59,0h-.31l-.92,0H11l-.78,0-.71,0-.38,0-.63,0-.65,0-.5,0-.46,0-.31,0-.3,0-.42,0h-.1l-.25,0H5.41l-.28,0-.57,0A2.28,2.28,0,0,1,3,11.85,4.94,4.94,0,0,1,2,10.06l7.64,1.22,4,.63-3.94-.8L3,9.77A3.18,3.18,0,0,1,.48,7.3,7.21,7.21,0,0,1,.37,6"/><path class="cls-5" d="M9.61,11.11a1,1,0,0,0,0,.17l4,.63ZM13,13l-.59,0h-.31l-.92,0H11l-.78,0-.71,0a1.93,1.93,0,0,0,0,.24l4.06,0Z"/><path class="cls-5" d="M37.86,12.05l.2,1.22a3.09,3.09,0,0,1,3-1.5,4.05,4.05,0,0,1,2.72,1L42.57,15a2.58,2.58,0,0,0-1.88-.68A2.44,2.44,0,0,0,38.06,17V22.6H35.44V12.05Z"/><path class="cls-5" d="M47.58,9.07a1.54,1.54,0,0,1-3.08,0A1.54,1.54,0,0,1,47.58,9.07ZM44.74,12V22.6h2.61V12Z"/><path class="cls-5" d="M50.56,22.6V14.49h-2V12.2h2v-.71a3.81,3.81,0,0,1,4-4.13,5.1,5.1,0,0,1,2.74.85l-1,1.95a2.94,2.94,0,0,0-1.6-.55c-.9,0-1.59.6-1.59,1.88v.71h3.11v2.29H53.17V22.6Z"/><path class="cls-5" d="M59.19,22.6V14.49h-2V12.2h2v-.71a3.81,3.81,0,0,1,4-4.13A5.12,5.12,0,0,1,66,8.21l-1,1.95a2.94,2.94,0,0,0-1.61-.55c-.89,0-1.58.6-1.58,1.88v.71h3.1v2.29H61.8V22.6Z"/><path class="cls-5" d="M69.59,9.07a1.54,1.54,0,0,1-3.08,0A1.54,1.54,0,0,1,69.59,9.07ZM66.75,12V22.6h2.61V12Z"/><path class="cls-5" d="M79.48,22.6V17.08c0-1.61-.87-2.83-2.54-2.83a2.78,2.78,0,0,0-2.7,3V22.6H71.65V12H74l.17,1.43a4.75,4.75,0,0,1,3.47-1.58c2.49,0,4.48,1.86,4.48,5.18V22.6Z"/><path class="cls-5" d="M91.24,14.85a3.59,3.59,0,0,0-2.61-.94c-1.24,0-1.93.38-1.93,1.05s.62,1.07,2,1.15c2,.13,4.52.58,4.52,3.39,0,1.86-1.52,3.47-4.54,3.47a6.16,6.16,0,0,1-4.88-1.89l1.28-1.86a5.81,5.81,0,0,0,3.64,1.48c1,0,1.91-.5,1.91-1.27s-.6-1-2.1-1.11c-2-.15-4.37-.88-4.37-3.28s2.53-3.29,4.45-3.29a5.67,5.67,0,0,1,4.11,1.39Z"/><path class="cls-1" d="M99,2V.14h1V5H99V3.14H94.22V2Z"/><g class="cls-6"><path class="cls-4" d="M97.44,1.82V2h0v.09l0,0V2h0V1.91l.05.07v.07l0,0v.05l0,0v0l0,0V2.1h0v.08h0v.05h0v0h0v.1l-.05,0h0v.05h0l0,.05v.08l0,.1v0h0v0l0,0v0h0l0-.13,0,.1,0,0V2.39h0l0,0v0h0v0h0v0h0l0,0-.07-.11h-.05l0,0v.07h-.07v0l.06,0,0,.07h.09l0,0,0,.09h-.06v0l0,.07h-.07l0,0v0h0v0h0v0l0,0h0v0h0V2.53h0l0,0h0v0h0v0h0v0h0v0h0v.05h0l0,0h0v0l0-.05h0L97,2.27l-.08-.08h0l-.05-.08,0,0H96.7l0-.05h0V1.88l0-.08-.06,0h0l0,0v.07l.07.09h0l-.06,0V2h-.11v.1l.07.06v.08l0,0v.08h0l0,0-.07.05v.08l0,0h-.06l0,.06v.14l0,0,0,0h0l-.07-.05h-.15l0,0V2.67l0,0h0l-.07,0,0,0-.08-.06,0,0,0-.07v0h0v0h0l0,0,0,0v0h-.08l0,0h0V2.47l.06-.08.09-.06h.1l.06,0h.1v0h.22l0-.08v0h0l.12-.1h.11l0,.06h.08V2l.08-.08V1.82h0v0h0l0-.11.07,0,0,0,.1-.08h.07v0h-.07l-.07.05h0v0l.09-.06h.09l0-.06h.07a1.15,1.15,0,0,0-.49-.08"/><path class="cls-4" d="M101.73,1.79l-.12-.07h-.13l-.15-.1-.08,0-.07,0-.08-.15-.31,0-.14-.11-.09.11h-.07l0,.08V1.6l-.09.14v0l0,.07-.3,0-.16-.1v0l0-.05,0,0-.07,0,0-.3-.1-.07V1.22l0,0,0-.09V1l.12-.22.1.07.14-.14,0,0v0l-.05,0,.05-.1.12,0,.09-.15v0l-.18,0-.06.1H100l-.09,0V.41l.08.1-.12,0-.07,0-.1,0h0l0,.08.09,0,.11-.06h0v0l.06,0V.68l0,0h0l0-.06v0l-.19.09-.05,0,0,.09-.05.06.06.16,0,.05,0,.06,0,.09,0,0-.11-.05,0-.05,0-.1L99.49,1l0,0,0,0L99.34.87l0-.1,0-.13,0-.07,0-.06v0l-.09,0,0,.1-.08,0,0,0,0,0V.48l0-.11,0,0,.92-2.21,3.5,2.26Z"/></g><path class="cls-1" d="M94.22,11.1V6.65H100V11.1H99V7.76H97.63V11h-1V7.76H95.3V11.1Z"/><g class="cls-7"><path class="cls-4" d="M97.44,9.88V10h0v.08h0V10l0,0h0V10l.05.08v.07l0,0v.06l0,0v0l0,0v-.06h0v.08h0v.06h0v0h0v.11l-.05-.05h0v.05h0l0,0v.08l0,.1v0h0v0l0,0v-.06h0l0-.12,0,.09,0,0v-.08h0l0,0v0h0v0h0v0h0v0h0l0-.06-.07-.11-.05,0,0,0v.06h-.07v0l.06,0,0,.06h.09l0,0,0,.09h-.06v0l0,.06h-.07l0,0v0h0v-.05h0v0l0,0h0v0h0V10.6h0l0,0h0v0h0v0h0v0h0v0h0l0,0h0v0l0-.06h0L97,10.33l-.08-.07h0l-.05-.07,0,0H96.7l0-.06h0V9.94l0-.07-.06,0h0l0,0v.06l.07.09h0l-.06,0v.07l-.11,0v.1l.07.06v.08l0,0v.07h0l0,0-.07,0v.08l0,0h-.06l0,.06v.15l0,0,0,.05h0l-.07-.05h-.15l0,0v-.08l0,0h0l-.07,0h0l-.08-.06,0,0,0-.08v-.05h0v0h0l0,0,0,0v0h-.08l0,.06h0v-.07l.06-.08.09-.06h.1l.06-.05h.1v0h.22l0-.08v0h0l.12-.1h.11l0,.07.08,0v-.09l.08-.08V9.89h0V9.84h0l0-.12.07,0h0l.1-.07.07,0v0l-.07,0-.07.05h0v0l.09,0h.09l0,0h.07a1.15,1.15,0,0,0-.49-.08"/><path class="cls-4" d="M96.93,6.37v.06l0,0v.06h0v.09h0V6.52l0,0h0V6.46l.06.07v.08l0,0V6.7l0,0v0l0,0V6.65h0v.08h0V6.8h0v0h0v.11l0,0h0V6.9H97l0,.05V7l0,.1v0h0v0h0v0h0l0-.13.06.1,0,0,0-.08h0l0,0v0h0v0h0v0h0v0h0l0-.05-.07-.11h0l0,0v.06h-.07v0l.06,0,0,.06h.08l0,0V7h-.06V7l0,.06h-.08v0h0v0h0v0h0v0l0,0h0v0h0v0h0V7h0V7h0V7h0l0,0h0V7l-.06-.06h0l-.05-.08-.08-.07h0l-.05-.07,0,0H96.2l0-.06h0V6.43l0-.08-.06,0h0l0,0V6.4l.07.09h0l0,0v.07h-.11v.11l.07.06V6.8l0,0v.08h0V7l-.07,0v.08l0,0h-.06l0,.06v.14l0,0v0h0l-.08-.05h-.15l0,0V7.22l0,0h0l-.08,0,0,0-.08,0-.05,0,0-.07V7h0V7h0l0,0,0,0v0h-.08l0,.06h0V7L94.86,7l.1-.07h.1l0,0h.1v0h.21l0-.09v0h0l.11-.11h.12l0,.07.08,0v-.1L96,6.46V6.37h0v0h0l0-.11.07,0,0,0,.1-.07.07,0v0h-.07l-.07.06h0v0l.08,0h.1l0,0h.07a1.29,1.29,0,0,0-.49-.07"/><path class="cls-4" d="M100,8.8V8.71l-.07-.05,0-.11,0,0v0l0-.1-.12-.14V8.13h-.08l0,0-.05,0,0,0-.09,0h0l-.15-.12,0-.11h0v0h0l0,0,.12-.13,0-.07.06,0h.09l0,0,.14,0v.07h.16v0h.07l.07,0,.1,0h0a.41.41,0,0,0,0-.09h-.07l0,0V7.4l0,0V7.5l-.06,0v0l0,0h-.08l0,0,.07,0h0v0l0,0h0l0,0h0v0l-.11-.05v0l0,0h0l-.05.09v0h-.13l0-.07v0l.06,0h.06v0h0V7.36l.07,0,0-.07.05,0h0l0-.06,0,0,0,0h0v0l0,0,0,0v0l1.31-.51L101.34,9Z"/></g><path class="cls-1" d="M95,17.91a3.17,3.17,0,0,1-.87-2.25,2.89,2.89,0,0,1,3-3.15,3,3,0,0,1,3.07,3.15,3.11,3.11,0,0,1-.89,2.18l-.71-.75a2,2,0,0,0,.55-1.43,1.92,1.92,0,0,0-2-2.05,1.89,1.89,0,0,0-2,2.05,2.21,2.21,0,0,0,.59,1.49Z"/><g class="cls-8"><path class="cls-4" d="M93.52,16.54l0-.06,0,0,0-.05h0l0-.08h0l0,.07v0h0l0,.07,0-.09,0-.07,0,0,0-.05v0l0,0,0,.06,0,.06h0l0-.08h0l0-.05,0,0,0,0,0,0v0l0-.07,0,.05h0l0,0-.06,0v0l0-.08.07-.08,0,0,0,0,0,0,0,0v0h0l0,0-.07.11,0-.11,0,0,0,.08h0v.07h0v0h0v0h0v.05l0,.13h0l0,0,0-.06.06,0v0l0,0v-.07l-.08,0v-.05l.05-.07,0,0v-.09l.07,0,0,0,0,0,0,0V16h0l0,0h0v0h0l0,0h0v0h0v0h0v0h0v0h0v0h0l0,0h0l0,.07h0v.09l.05.1,0,0,0,.09,0,0,.07,0,0,0,0,0-.06.14v.09l0,.05,0,0h0l0-.06,0-.11h0l0,.05,0-.07.11,0,0-.09,0-.09,0-.07h0l0-.07h0l0,0,.09,0,0-.07h.11l0,0,0,0,0-.1.06,0,0,0,0,0,0,.07.13.07,0,.06,0,.07,0,0h.07l0,0,0,.09,0,0v.13h0l0,0h0l0,0h0v0l0,0,0,0h0l.06,0,0,0,0,.07-.08,0-.12,0-.08,0-.07,0-.09,0,0,0-.2-.07-.07.05,0,0h0l-.14.05,0,0-.06,0,0-.08-.08,0,0,.09-.1,0,0,0,0,0h0l0,0h0L94.3,17l-.07,0,0,0-.12,0H94v0l.07,0,.09,0h0l0,0-.09,0-.1,0,0,0-.06,0a1.22,1.22,0,0,0,.42.27"/><path class="cls-4" d="M100.13,15.3l0-.1-.09,0-.06-.11-.06,0,0,0v-.13l-.19-.12,0-.12-.09,0,0,0-.06,0v.05l-.1,0h0l-.06,0L99,14.73,99,14.62l0,0,0,0h0l0,0,.1-.19,0-.08.05-.08,0,0,.06,0,0,0,.15-.1,0,.08.14,0h.05l0,0,.07-.05.09,0,.11-.06h0l-.09-.09-.07,0-.06,0,0-.06,0,0,0,.09-.09,0,0-.06h-.1l-.06,0,0,0h.11v0l0,0,0,0H99.3l0,0v0l-.14,0,0,0,0,.06h0l0,.13v0l0,0-.07,0h0l0-.07V14l0,0L99,14v-.05h0l0-.06.07,0v-.1l0,0,0,0h0l0-.06,0,.06,0,0h0l0,0v-.05l.05-.06v0l1.35-1,1.4,2.68Z"/></g><path class="cls-1" d="M94.22,23.61h2.35V20.7H94.22V19.58H100V20.7H97.58v2.91H100v1.12H94.22Z"/><g class="cls-9"><path class="cls-4" d="M96.45,19.23v.15h0v.09h0V19.4h0v-.07l.06.07v.07l0,0v.06l0,0v0l-.05-.05v-.06h0v.08h0v.06h0v0h0v.11l0-.05h0v.05h.06l0,.05,0,.08,0,.1v0h0v0h0V20h0l0-.13.06.1,0,0,0-.08h0l0,0v0h0v0h0v0h0l0-.05-.07-.11h0v.1h-.07v0l0,0,0,.06h.08l0,0,0,.1h0v0l0,.06h-.07v0l0,0h0V20h0V20h0V20h0v0h0v0h0v0h0v-.06h0v.05h0l0,0h0v0l-.06-.06h0l0-.08-.09-.08h0l-.06-.07,0,0h-.07l0-.06h0v-.15l0-.08-.07,0h0l0,0v.06l.07.09h0l-.06,0v.07h-.12v.1l.08.07v.07l0,0v.08h0l0,0-.07.05v.08l-.05,0h-.06l0,.06v.14l-.05,0v.05h0l-.07-.05h-.15l0-.05v-.07l0,0h0l-.08,0,0,0-.08,0,0,0,0-.07v-.05h0v0h0l0,0,0,0v0h-.08l0,.06h0v-.08l.06-.07.1-.07h.1l0-.05h.1v0H95a.73.73,0,0,0,0-.09v0h0l.11-.11h.11l0,.07.08,0v-.1l.08-.08v-.09h0v0h0l0-.11.06,0,0,0,.09-.07.08,0v0h-.08l-.07.06h0v0l.08-.05h.1l0-.05h.07a1.32,1.32,0,0,0-.49-.07"/><path class="cls-4" d="M99.26,20.22l-.12-.08H99l-.15-.09-.08,0-.07,0-.08-.15-.31,0-.14-.11-.08.11H98L98,20V20l-.09.14h0l-.05.08-.3,0-.16-.1v0l-.05,0,0,0-.07,0,0-.29-.1-.07v-.14l0,0,0-.09v-.08l.12-.22.1.07.14-.14,0,0,0,0-.06,0,0-.1.12-.05.09-.14v0l-.18,0,0,.1h-.09l-.09,0v.06l.09.1-.12,0-.08,0-.1,0h0l0,.08.09,0,.11-.07h0v0l0,0v.06l0,0h0l0-.06v0l-.19.09,0,0v.09l0,.05.06.17,0,.05,0,.06-.06.08,0,0-.11-.05,0-.05,0-.1.08-.08,0-.05,0,0-.07-.07,0-.1,0-.13,0-.08,0,0v0l-.09,0,0,.1-.08,0,0,0,0,0,0-.06,0-.11,0,0,.93-2.21,3.49,2.26Z"/><path class="cls-4" d="M98.58,24.23h-.14l-.11-.05h-.17l-.06,0H98l-.16,0-.26-.08h-.18V24l0,0V24l0,0v-.08h0v0l-.24-.11H97v0h-.07v0h-.07l-.18.12h-.12l-.06.06v.07l0,0,0,.13h.12l0,.1,0,0v0h-.06v.06l.07.05v.09h0l-.17,0v0l-.06,0h-.1l0,0,.13,0-.09,0h-.09l-.06,0h0v-.05h.08l.06.06h.1l0,0v0l0,0v0h0l-.11-.09h-.05l.06,0v0l.14-.06h0v-.08l0,0h-.17l0,.06,0,.05h-.06v0h-.09l0,.06L96,24l0,0v0h-.1l0,0-.08,0v0h0l0,0,0,.05h0l-.4,1.21,4.13.08Z"/></g></svg>