<svg id="Layer_1" data-name="Layer 1" xmlns="http://www.w3.org/2000/svg" xmlns:xlink="http://www.w3.org/1999/xlink" viewBox="0 0 117 25"><defs><style>.cls-1{fill:#26a9e0;}.cls-2{fill:#1b75bb;}.cls-3{clip-path:url(#clip-path);}.cls-4{fill:#e6e7e8;}.cls-5{fill:#fff;}.cls-6{clip-path:url(#clip-path-2);}.cls-7{clip-path:url(#clip-path-3);}.cls-8{clip-path:url(#clip-path-4);}.cls-9{clip-path:url(#clip-path-5);}</style><clipPath id="clip-path"><path class="cls-1" d="M39.51,7.38H34A7.83,7.83,0,0,0,20.78,9.73c-1.53-.32-3.05-.68-4.57-1.08a12.5,12.5,0,0,1,23.3-1.27Z"/></clipPath><clipPath id="clip-path-2"><path class="cls-1" d="M105.9,2V.07h1V5h-1V3.1H101V2Z"/></clipPath><clipPath id="clip-path-3"><path class="cls-1" d="M101,11.12V6.64h5.87v4.48h-1.08V7.76h-1.35V11h-1V7.76h-1.32v3.36Z"/></clipPath><clipPath id="clip-path-4"><path class="cls-1" d="M101.78,18a3.24,3.24,0,0,1-.87-2.28,2.91,2.91,0,0,1,3-3.17A3,3,0,0,1,107,15.72a3.15,3.15,0,0,1-.89,2.2l-.72-.75a2.1,2.1,0,0,0,.56-1.45,1.94,1.94,0,0,0-2-2.06,1.9,1.9,0,0,0-2,2.06,2.24,2.24,0,0,0,.6,1.51Z"/></clipPath><clipPath id="clip-path-5"><path class="cls-1" d="M101,23.75h2.37V20.8H101V19.67h5.87V20.8h-2.48v2.95h2.48v1.12H101Z"/></clipPath></defs><path class="cls-2" d="M19.66,11.94l-4-.64c0-.05,0-.11,0-.16Z"/><path class="cls-2" d="M19.72,13.05l-4.1,0c0-.08,0-.16,0-.25l.72,0,.78,0h.11l.92.05h.32l.6,0Z"/><path class="cls-1" d="M30.53,24.79A13.82,13.82,0,0,1,28.1,25,12.5,12.5,0,0,1,16,15.47l4.91,0a7.81,7.81,0,0,0,9.26,4.58l.4,4.66Z"/><path class="cls-1" d="M39.51,7.38H34A7.83,7.83,0,0,0,20.78,9.73c-1.53-.32-3.05-.68-4.57-1.08a12.5,12.5,0,0,1,23.3-1.27Z"/><g class="cls-3"><path class="cls-4" d="M19.8,1.4l.2.05.07.08.16.08v.07l.26.08v-.1l-.23-.07.07,0V1.49l-.21-.06.28-.11.22.06.06.18.17.05L21,1.54,21,1.6l-.18.1-.19-.05a.59.59,0,0,1,0,.14l.24.06,0-.05.17,0,.05-.09-.1,0,.06-.08h.08l.26.08-.18.09V1.9l.14.06.05-.18.16,0,.26.05.26.21.06,0,0,.14.11.06-.09.09-.13,0h0l-.09.11-.35-.19.34-.08L21.81,2l-.26,0,0,0h0l-.09,0-.13,0v.06l0,0v0h-.11l0,.05-.1,0,0-.12h-.19l-.4.1v.16l.08.09.19.08-.07.22h.1L21,2.56h.22l.08-.26.14-.06.26.15-.07.17.07,0,.24,0-.06.24.06.06.06.07,0,.13h-.16v.05l.05,0,.1.08,0,.1h-.05l-.05,0-.15-.09V3.09h0l.08,0,0-.06-.07,0,0,0h-.18l0-.07,0,0-.09,0,0,0,0,.08.06,0,.07,0h0l-.08.06,0,0L21.2,3,21,3.12l0,0-.29.07-.31.18,0,.11-.28.09-.16.08-.05.25-.15-.13.05-.14-.46-.12-.28,0-.15.16-.09.14,0,.17.18.07L19.35,4v.1l-.14.15.22.1-.07.36.29.14.26-.18.23.12.05.14.24,0,0-.06.11.09.08.27.25.07,0,.18,0,.2.16.11.08.07.35.1.05.19.14.09-.07.13-.22.17-.18.45L21,7.14l-.22-.07-.11.11h0v.26l-.08,0-.25.19-.12.12-.26,0-.16,0,0,.06.1.06,0,.07-.12.06,0,.09.11,0,0,.09,0,.08,0,.06.13.19-.05.07-.23-.07-.17-.26L19.34,8l.11-.3-.09-.22.14-.29-.07,0,.18-.67s-.18-.24-.19-.24l-.11-.06V6l-.19-.45.07-.12.07-.22.24-.08,0-.25-.29-.11-.16-.33-.16-.09-.1,0,0-.09-.13-.06v0l-.32-.18-.08-.24.09-.09-.13-.37,0-.24-.08,0,0,.23.09.27,0,.09-.12-.05L18,3.32,18.13,3,18,2.89l.06-.23a4.08,4.08,0,0,0-.73,1.44"/><path class="cls-4" d="M34.43,2.64l-.27-.17-.3,0-.32-.2-.19,0-.14-.08L33,1.94l-.67,0L32,1.66l-.18.24-.16,0-.1.17,0,.14-.19.29,0,0-.1.17-.68.1-.33-.21,0-.08-.12-.11-.06.09-.15,0,0-.64-.23-.14,0-.29.06-.08L30,1.14,30,1l.25-.47.22.15.32-.3.09,0,0-.06L30.77.15l.11-.21.26-.11.2-.32v0A2.74,2.74,0,0,0,31-.61l-.13.21-.18,0-.19-.1v.15l.19.2-.26,0-.16-.1L30-.1l-.09,0L29.79.1l.19,0L30.22,0h.06V.05l.12.08,0,.12L30.3.33h-.11l.1-.13,0-.07-.4.18-.11,0,0,.2-.11.11.13.36.07.1-.06.13-.12.19-.12.08-.24-.11-.08-.11L29.34,1l.17-.18-.1-.1-.07.08L29.18.67l.1-.23L29.16.17,29.23,0l.11-.12,0-.05-.21-.09,0,.2-.18,0L28.87,0l-.11,0,0-.13,0-.23-.05-.1,2-4.74L38.4-.4Z"/></g><path class="cls-1" d="M39.86,16.78a11.57,11.57,0,0,1-4.28,5.95l-.5-4.84a.93.93,0,0,1,.25-.78,1,1,0,0,1,.74-.33Z"/><path class="cls-5" d="M11.67,7.76l.15,0,.65.2,1,.3.36.11.72.21.48.13,1.07.29.67.17.45.12.71.17.68.17.33.07.73.17.66.15.32.06c.78.17,1.56.32,2.35.47l.46.08.81.14.65.11,1.07.16.86.13.85.11.12,0,.77.1h.12l.86.1.73.08.25,0,.83.08.76.06.9.07.47,0,.61,0,.7,0h.43l.56,0,.84,0h4A11.92,11.92,0,0,1,40,16.4l-3.91,0a1.32,1.32,0,0,0-.34,0h0l-.07,0h0a1.74,1.74,0,0,0-.33.18h0l-.09.07-.11.11,0,.05a1.38,1.38,0,0,0-.17.25l-.06.14,0,.07a.25.25,0,0,1,0,.07,1.35,1.35,0,0,0-.05.45.22.22,0,0,0,0,.08L35.18,23v.09l-.68.44-.23.13h0l-.24.13-.19.09-.16.08-.19.08-.07,0-.22.09h0l-.24.09-.07,0a.7.7,0,0,1-.19.06s-.05,0-.08,0l-.17.05-.13,0-.1,0-.22.06-.27,0-.28.05-.28,0h0l-.23,0L30.55,20l-.18-2.09A2.19,2.19,0,0,0,28.79,16l-.15,0a22.71,22.71,0,0,0-4.27-.74h0c-.58-.05-1.51-.09-2.09-.09H20.71l-4.85,0L13,15h-.23a2.83,2.83,0,0,1-1.18-.24A2.89,2.89,0,0,1,10,13.13l5.63-.05,4.1,0-.66,0-.6,0h-.32l-.92-.05h-.11l-.78,0-.72,0-.38,0-.63,0-.66,0-.51,0-.46,0h-.31l-.31,0-.42,0h-.77l-.57,0a2.25,2.25,0,0,1-1.54-.69A4.83,4.83,0,0,1,8,10.07l7.7,1.23,4,.64-4-.8L9,9.78A3.2,3.2,0,0,1,6.48,7.29,7.4,7.4,0,0,1,6.36,6"/><path class="cls-5" d="M15.68,11.14s0,.11,0,.16l4,.64ZM19.06,13l-.6,0h-.32l-.92-.05h-.11l-.78,0-.72,0c0,.09,0,.17,0,.25l4.1,0Z"/><path class="cls-5" d="M44.19,12.08l.19,1.23a3.13,3.13,0,0,1,3-1.51,4.09,4.09,0,0,1,2.75,1L48.94,15.1a2.65,2.65,0,0,0-1.9-.69,2.46,2.46,0,0,0-2.66,2.7v5.62H41.75V12.08Z"/><path class="cls-5" d="M54,9.08a1.56,1.56,0,0,1-3.11,0A1.56,1.56,0,0,1,54,9.08ZM51.12,12v10.7h2.63V12Z"/><path class="cls-5" d="M57,22.73V14.54H55V12.23h2v-.71a3.86,3.86,0,0,1,4.07-4.17,5.14,5.14,0,0,1,2.76.86l-1,2a2.91,2.91,0,0,0-1.62-.56c-.91,0-1.6.6-1.6,1.9v.71h3.13v2.31H59.63v8.19Z"/><path class="cls-5" d="M65.7,22.73V14.54h-2V12.23h2v-.71a3.86,3.86,0,0,1,4.06-4.17,5.12,5.12,0,0,1,2.76.86l-1,2a2.91,2.91,0,0,0-1.62-.56c-.9,0-1.6.6-1.6,1.9v.71h3.14v2.31H68.33v8.19Z"/><path class="cls-5" d="M76.2,9.08a1.56,1.56,0,0,1-3.11,0A1.56,1.56,0,0,1,76.2,9.08ZM73.32,12v10.7H76V12Z"/><path class="cls-5" d="M86.17,22.73V17.15c0-1.62-.88-2.85-2.57-2.85a2.8,2.8,0,0,0-2.72,3v5.45H78.27V12.06h2.35l.18,1.44a4.82,4.82,0,0,1,3.5-1.59c2.5,0,4.51,1.87,4.51,5.22v5.6Z"/><path class="cls-5" d="M98,14.91A3.55,3.55,0,0,0,95.4,14c-1.26,0-2,.39-2,1.06s.63,1.08,2,1.16c2,.13,4.56.58,4.56,3.41,0,1.88-1.54,3.5-4.58,3.5a6.24,6.24,0,0,1-4.93-1.9l1.3-1.88a5.79,5.79,0,0,0,3.67,1.49c1,0,1.92-.49,1.92-1.27s-.6-1-2.11-1.12c-2-.15-4.41-.89-4.41-3.31s2.55-3.32,4.49-3.32a5.71,5.71,0,0,1,4.15,1.4Z"/><path class="cls-1" d="M105.9,2V.07h1V5h-1V3.1H101V2Z"/><g class="cls-6"><path class="cls-4" d="M104.28,1.76v.06l0,0v.06h0V2h0V1.91l0,0h0V1.85l.06.07V2l-.05,0v.06l0,0,0,0,0,0V2h0v.08h0v.06h0v0h0v.11l0,0h0v0h.06l0,0v.08l0,.1v0h0v0l0,0v0h0l0,0,0-.12,0,.09,0,0V2.34h0l0,0v0h0v0h0v0h0v0h0l0,0-.07-.11h0l0,0v.06H104v0l0,0,0,.06h.08l0,0v.09h-.06v0l0,.07h-.08v0h0v0h0v.06h0v0h0V2.48h0v0h0v0h0v0h0v0h0v0h0v0h0l0,0h0v0l-.06-.06h0l0-.08-.09-.07h0l-.06-.07,0,0h-.07l0-.06h0V1.82l0-.08-.06,0h0l0,0v.07l.07.09h0l-.06,0v.08h-.11v.11l.07.06V2.2l0,0V2.3h0l0,0-.07.05v.09l0,0h-.06l0,0v.15l0,0v.06h0l-.08,0h-.15l0-.05V2.62l0,0h0l-.08,0,0,0-.08-.06,0,0,0-.08v0h0v0h0l0,0,0,0v0h-.08l0,.06h0V2.42l.06-.08.1-.06h.09l.06,0h.1v0h.21l0-.08v0h0L103,2h.12l.05.07.07,0v-.1l.08-.08V1.76h0V1.72h0l0-.11.06-.05,0,0,.1-.08.08,0v0h-.07l-.07.05h0v0l.08-.06h.1l0-.06h.07a1.15,1.15,0,0,0-.49-.08"/><path class="cls-4" d="M108.62,1.73l-.12-.07h-.14l-.15-.1-.08,0-.07,0L108,1.4h-.31l-.15-.12-.08.11-.07,0-.05.08v.06l-.08.14v0l0,.07-.31.05-.16-.1v0l0-.05,0,0-.07,0,0-.31-.1-.06V1.15l0,0,.06-.08V.94l.12-.22.1.07.14-.14,0,0,0,0-.06,0,0-.11.12,0,.09-.15v0l-.18,0,0,.1h-.09l-.09,0V.34l.08.1-.12,0-.07,0-.1,0h0l-.05.08.08,0,.12-.06h0v0l.06,0V.61l0,0h0l0-.06v0l-.19.09,0,0,0,.1,0,.05.06.17,0,0,0,.06,0,.09-.06,0-.11,0,0-.05,0-.1.08-.09,0,0,0,0-.07-.06,0-.11,0-.13,0-.07,0-.06,0,0-.1,0,0,.1-.08,0,0,0,0,0,0-.06,0-.11,0,0L106.93-2,110.45.3Z"/></g><path class="cls-1" d="M101,11.12V6.64h5.87v4.48h-1.08V7.76h-1.35V11h-1V7.76h-1.32v3.36Z"/><g class="cls-7"><path class="cls-4" d="M104.28,9.89V10l0,0v0h0v.09l0,0v-.07h0V10l.06.07v.07l-.05,0v.05l0,0,0,0,0,0v-.06h0v.08h0v.05h0v0h0v.11l0-.05h0v0h.06l0,.05v.08l0,.1v0h0v0l0,0v0h0l0-.13,0,.1,0,0v-.08h0l0,0v0h0v0h0v0h0l0,0-.07-.11h0l0,0v.07H104v0l0,0,0,.07h.08l0,0v.1h-.06v0l0,.06h-.08v0h0v0h0v.06h0v0h0v-.07h0v0h0v0h0v0h0v0h0v0h0l0,0h0v0l-.06-.06h0l0-.08-.09-.08h0l-.06-.08,0,0h-.07l0-.05h0V10l0-.07-.06,0h0l0,0v.06l.07.1h0l-.06,0v.08h-.11v.1l.07.06v.08l0,0v.08h0l0,0-.07,0v.08l0,0h-.06l0,.06v.15l0,0v0h0l-.08,0h-.15l0,0v-.08l0,0h0l-.08,0h0l-.08-.06,0,0,0-.08v-.05h0v0h0l0,0,0,0v0h-.08l0,.06h0v-.08l.06-.07.1-.07h.09l.06-.05h.1v0h.21l0-.08v0h0l.11-.1h.12l.05.06h.07v-.1l.08-.08V9.9h0v0h0l0-.12.06,0h0l.1-.07.08,0v0l-.07,0-.07.05h0v0l.08,0h.1l0-.05h.07a1.32,1.32,0,0,0-.49-.07"/><path class="cls-4" d="M103.78,6.35V6.5h0v.08h0V6.5l0,0h0V6.44l.06.08v.07l0,0v.06l0,0v0l0,0V6.63h-.05v.08h0v0h0v0h0v.11l0,0h0v0h0l0,0V7l0,.1v0h0v0l0,0v0h0l0-.13.05.1,0,0V6.93h0l0,0v0h0v0h0v0h0l0-.06-.07-.11,0,0,0,0v.06h-.08v0l.06,0,0,.07h.09l0,0,0,.09h-.06V7l0,.07h-.07l0,0v0h0V7.1h0v0l0,0h0v0l0-.06h0v0h0v0h0V7h0l0,0h0V7h0V7h0l0,0h0v0l-.06,0h0l0-.09-.08-.07h0l0-.08,0,0H103l0-.06h0V6.41l0-.07-.07,0h0l0,0v.06l.07.09h0l-.06,0v.07l-.11,0v.1l.08.06,0,.08,0,0v.07h0l0,0-.07,0v.08l0,0h-.06l0,.06v.14l0,0,0,.05h0l-.07,0h-.15l0,0V7.21l0,0h0l-.08,0,0,0L102,7.14l0,0,0-.07V7h0V7h0l0,0,0,0v0h-.08l0,0h0V7l.06-.08.1-.06h.1l0,0,.1,0v0h.21l0-.08v0h0l.12-.1h.11l0,.07h.08v-.1l.08-.08V6.36h0V6.31h0l0-.11.06,0,0,0,.09-.08h.08v0h-.08l-.07.06h0v0L103,6h.1l0,0h.07a1.15,1.15,0,0,0-.49-.08"/><path class="cls-4" d="M106.86,8.8V8.71l-.07-.05,0-.11,0,0v0l0-.1-.12-.14V8.13h-.09l0,0h-.06l0,0-.09,0h-.06l-.15-.11,0-.11h0v0h0l0,0,.12-.14V7.67l.06,0h.08l0,0,.14,0,0,.07h.16v0l.07,0,.07,0,.1,0h0l-.06-.09h-.07l0,0V7.39l0,0V7.5l-.06,0v0l-.06,0h-.07l0,0,.07,0h0v0l0,0h0l0,0h0v0l-.11,0v0l0,.05h0l0,.1v0h-.14l0-.06v0l0,0h.07v0h0V7.35l.06,0,0-.08h.1l0-.06,0,0,0,0h0l0,0,0,0,.06,0V7l1.32-.5L108.22,9Z"/></g><path class="cls-1" d="M101.78,18a3.24,3.24,0,0,1-.87-2.28,2.91,2.91,0,0,1,3-3.17A3,3,0,0,1,107,15.72a3.15,3.15,0,0,1-.89,2.2l-.72-.75a2.1,2.1,0,0,0,.56-1.45,1.94,1.94,0,0,0-2-2.06,1.9,1.9,0,0,0-2,2.06,2.24,2.24,0,0,0,.6,1.51Z"/><g class="cls-8"><path class="cls-4" d="M100.34,16.61l0-.06,0,0,0-.05h0l0-.08h0l0,.07v0h0l0,.07,0-.09,0-.07.06,0,0-.05,0,0,0,0,0,.06,0,.06h0l0-.08h0v-.06h0l0,0,0,0v0l0-.08,0,.06h0l0-.05,0,0v-.05l0-.08.07-.07,0,0h0l0,0,0,0,0,0h0l0,0-.07.11V16l0,0,0,.08h0l0,0v0h0v0h0v0h0v.06l0,.13h0l0,0,0-.05.07,0v0l0,0v-.07l-.08,0,0-.05.05-.08.06,0V16l.07,0h0l0,0,0,0v0h0l0,0,0,0,0,0h0v0l0,0h0v0h0v0h0v0h0v.05h0l0,0v0h0l0,0h0v0l0,.07h0v.09l0,.1,0,0,0,.09,0,.05.07,0,0,0,0,0-.06.15v.08L101,17l0,0h0l0,0,0-.12h0l0,.05,0-.06.1,0,.05-.09,0-.09,0-.07h0l0-.07h0l0,0,.08,0,0-.08h.06l.06,0,0,0,0,0,0-.11h.06l0,0,0,0,0,.08.13.07,0,.06,0,.07,0,0h0l.07,0,0,0,.05.09,0,0v.13h0l0,0h0l0,0h0v0h0l0,0h0l.06,0,0,0,0,.07-.09.05-.11,0-.09,0-.07,0-.09-.06,0,0-.2-.08-.08.06,0,0h0l-.14.05,0,0-.07,0,0-.08-.07,0,0,.09-.11,0,0,.05,0,0,0,0,0,0h0l-.06.09-.08,0,0,0-.12,0-.07,0v0h.07l.09,0,0,0,0,0h-.1l-.09,0,0,0-.07,0a1.21,1.21,0,0,0,.43.27"/><path class="cls-4" d="M107,15.36l-.05-.1-.09,0-.06-.11-.06,0,0-.05v-.12l-.19-.12,0-.13-.09,0,0,0-.06,0,0,0-.1.06h0l0,0-.22-.08-.06-.12,0,0,0-.05,0,0,0,0,.09-.19,0-.08.05-.08,0,0,.06,0,0-.05.14-.1,0,.08.14,0h0l0,0,.06,0h.1l.11-.06h0l-.09-.09-.08,0,0,0,0-.06,0,0,0,.09-.08,0,0-.05-.08,0h0l-.06,0,0,0h.1l0,0,0,0h0l0,0,0,0v0h-.15l0,0,0,.07h0l0,.13v0l0,0-.07,0h0l-.06-.08v0l.06-.05.07,0v0h0l0-.07.06-.05v-.1l0,0,0,0h0l-.05-.06,0,0,0,0h0l0,0v0l.05-.06v0l1.36-1.06,1.42,2.7Z"/></g><path class="cls-1" d="M101,23.75h2.37V20.8H101V19.67h5.87V20.8h-2.48v2.95h2.48v1.12H101Z"/><g class="cls-9"><path class="cls-4" d="M103.29,19.32v.15h0v.09l0,0v-.07h0v-.07l.06.07v.07l0,0v0l0,0v0l0,0v-.06h0v.08h0v.05h0v0h0v.11l0-.05h0v.05h.06l0,0,0,.08,0,.1v0h0v0l0,0v-.05h0l0-.13.06.1,0,0,0-.08h0l0,0v0h0v0h0v0h0l0-.05-.07-.11h0l0,0v.07H103v0l.06,0,0,.07h.09l0,0,0,.1h-.05v0l0,.06h-.07v0l0,0h0v-.05h0v0l0,0h0v0h0v-.07h0l0,0h0v0h0v0h0v0h0V20h0l0,0h0v0l0-.06h0l0-.08-.08-.08h0l0-.08,0,0h-.08l0-.05h.05v-.16l0-.07-.06,0h-.05l0,0v.06l.06.1h0l0,0v.08h-.11l0,.1.08.06v.08l0,0v.08h0l0,0-.07.05V20l0,0h-.07v.21l0,0,0,.05h0l-.07-.05h-.15l0,0v-.08l0,0h0l-.07,0h0l-.08-.06,0,0,0-.08V20h0v0h0l0,0,0,0v0h-.08l0,.06h0V20l.06-.08.1-.07h.1l.06-.05h.1v0h.22l0-.08v0h0l.11-.1h.11l.05.06h.08v-.1l.08-.08,0-.06v0h0v0h0l0-.12.07,0h0l.1-.07.07,0v0l-.07,0-.07.05h0v0l.08-.05h.1l0-.05h.07a1.38,1.38,0,0,0-.5-.07"/><path class="cls-4" d="M106.12,20.33l-.12-.08h-.14l-.15-.1-.08,0-.07,0-.08-.15-.31,0-.15-.11-.08.11h-.07l-.05.08v.06l-.08.14v0l0,.08-.31.05-.16-.11v0l0-.05,0,0-.07,0,0-.3-.1-.07v-.14l0,0,.06-.08v-.09l.12-.22.1.07.14-.14,0,0,0,0-.06,0,0-.11.12,0,.09-.15v0l-.18,0,0,.1h-.09l-.09,0v.06l.08.1-.12,0-.07,0-.1,0h0l-.05.08.08,0,.12-.06h0v0l.06,0v.06l0,0h0l0-.06v0l-.19.08,0,0,0,.1,0,.05.06.17,0,0,0,.07,0,.08-.06,0-.11-.05,0-.05,0-.1.08-.08,0-.05,0,0-.07-.06,0-.11,0-.13,0-.07,0-.06,0,0-.1-.05,0,.1-.08,0,0,0,0,0,0-.06,0-.11,0,0,.93-2.23L108,18.9Z"/><path class="cls-4" d="M105.44,24.37h-.14l-.11,0H105l-.06,0h-.07l-.15,0-.27-.09h-.18l0-.07-.05,0v-.05l.05,0V24h0v-.05l-.23-.11h-.27v0h-.07l-.17.13h-.13l-.06.06v.08l0,0,0,.12h.12l0,.1,0,0v0h-.07v.05l.07.06v.09h0l-.17,0v-.06l-.06,0h-.1l0,0,.13,0-.09,0h-.09l-.07,0,0,0v-.05l.08,0,.06.06h.1l0,0v0l0,0v0h0l-.12-.09h0l.06,0v0l.13-.05h.06V24l0,0h-.18l0,.05,0,.06H103v0h-.1l0,.06-.11,0v.08h-.11l0-.05h-.08v0h-.06l0,0,0,.06h0l-.4,1.22,4.17.07Z"/></g></svg>